<svg width="39" height="32" viewBox="0 0 39 32" fill="none" xmlns="http://www.w3.org/2000/svg">
<g clip-path="url(#clip0_16_120)">
<path d="M38.2102 3.73889C37.9521 3.56363 37.6104 3.57255 37.3612 3.76141C37.034 4.01022 36.5015 4.20763 35.9284 4.35971C37.421 2.68252 37.4531 1.56262 37.437 1.30481C37.4203 1.03889 37.2605 0.802877 37.0198 0.689329C36.7785 0.575123 36.4959 0.60298 36.2808 0.7593C34.602 1.98317 32.9297 2.24164 31.9351 2.26767C30.4087 0.802877 28.4258 0 26.3164 0C21.7994 0 18.1246 3.73465 18.1246 8.32503C18.1246 8.71949 18.152 9.11402 18.2068 9.50423C10.3786 9.41533 4.02156 1.8928 3.95609 1.81428C3.80335 1.63112 3.57094 1.5333 3.33349 1.55435C3.09604 1.57512 2.88353 1.71038 2.76462 1.91744C0.511673 5.83707 2.01918 9.2797 3.39721 11.2507C3.15334 11.1204 2.95578 10.9919 2.83796 10.9048C2.61903 10.7413 2.32676 10.7141 2.08078 10.8351C1.83517 10.9565 1.67821 11.205 1.67354 11.4795C1.61267 15.2142 3.40537 17.3537 5.09055 18.5365C4.86593 18.5151 4.63774 18.5989 4.48187 18.7689C4.30668 18.9599 4.24515 19.2295 4.32061 19.4776C5.48466 23.2994 8.34344 24.5977 10.1625 25.0383C6.42228 27.9583 0.918549 27.0187 0.857675 27.0079C0.525525 26.9491 0.196947 27.1243 0.0617105 27.4335C-0.0735991 27.7423 0.0189888 28.1043 0.286692 28.3089C4.23444 31.3306 8.95613 32 12.3671 32C14.9469 31.9996 16.7776 31.6165 16.9527 31.5783C34.2293 27.4724 34.7156 11.6012 34.6761 9.0001C37.9194 5.97519 38.4263 4.82311 38.5046 4.53825C38.5872 4.23585 38.469 3.91458 38.2102 3.73889ZM33.4437 8.15153C33.2814 8.30149 33.1956 8.51747 33.2101 8.73843C33.2561 9.4407 34.1396 25.9912 16.6302 30.1525C16.5509 30.1693 9.59083 31.6258 3.55701 28.628C6.10617 28.557 9.76171 27.8873 12.3083 25.0198C12.5006 24.8038 12.5472 24.4942 12.4276 24.2308C12.3094 23.9698 12.0495 23.8023 11.764 23.8023C11.7615 23.8023 11.7591 23.8023 11.7566 23.8023C11.7203 23.8256 7.89173 23.7981 6.13927 20.1456C6.8452 20.1855 7.71552 20.142 8.40862 19.8217C8.69411 19.6896 8.86281 19.389 8.8276 19.0756C8.79239 18.7625 8.56099 18.5073 8.25341 18.4423C8.05729 18.4009 3.79555 17.4451 3.19927 12.7823C3.84608 13.0657 4.67303 13.2978 5.49174 13.1725C5.773 13.13 6.0033 12.9272 6.08269 12.6534C6.16209 12.3796 6.07518 12.084 5.86056 11.8969C5.6783 11.7377 1.67566 8.1701 3.57342 3.56933C5.63346 5.73705 11.736 11.371 19.1288 10.9451C19.3457 10.9326 19.5457 10.8234 19.6745 10.6477C19.8031 10.4721 19.8469 10.2483 19.7938 10.0369C19.6539 9.47777 19.5827 8.90162 19.5827 8.32503C19.5827 4.54074 22.6035 1.4623 26.3164 1.4623C28.1325 1.4623 29.8362 2.18914 31.1128 3.50938C31.247 3.64822 31.431 3.72821 31.6236 3.73143C32.396 3.7421 33.6665 3.65108 35.1011 3.07413C34.6871 3.59076 34.0791 4.21048 33.1846 4.91487C32.9318 5.11411 32.8389 5.45614 32.956 5.75635C33.0735 6.05729 33.3764 6.24725 33.6932 6.21866C33.863 6.20513 34.7295 6.12836 35.7084 5.91596C35.1751 6.49284 34.444 7.22867 33.4437 8.15153Z" fill="#42434B"/>
</g>
<defs>
<clipPath id="clip0_16_120">
<rect width="38.5306" height="32" fill="white"/>
</clipPath>
</defs>
</svg>
